<svg xmlns="http://www.w3.org/2000/svg" width="66.153" height="32.543" viewBox="0 0 66.153 32.543">
  <g id="组_134990" data-name="组 134990" transform="translate(0.66 1.095)">
    <path id="联合_302" data-name="联合 302" d="M42.44,30.771c-1.834-.113-3.239-1.064-3.313-3.006l1.835-8.642,4.489.09a.852.852,0,0,1-.007.379,63.806,63.806,0,0,0-1.323,6.247c-.051.829.368,1.156,1.152,1.224a29.1,29.1,0,0,1,3.651.013,25.716,25.716,0,0,0,4.02-.024c.863-.1,1.162-.847,1.238-1.623H56.79c-.261,1.088-.362,2.271-.618,3.351a2.34,2.34,0,0,1-2.248,1.989c-1.808-.088-3.665-.038-5.522.012-1.12.03-2.239.06-3.347.06C44.173,30.844,43.3,30.825,42.44,30.771Zm-32.594-3.7c.306-.02.625-.01.944,0,1.1.032,2.2.064,2.788-1.069L15.5,16.95c-.08-.273-.993-.05-1.221-.043-1.27.037-2.536,0-3.8-.033-1.019-.028-2.039-.056-3.061-.047a11.478,11.478,0,0,1-1.188.076,2.181,2.181,0,0,1-2.115-2.474c.784-2.846,1.139-5.98,1.965-8.8.9-3.065,3.41-3.047,5.972-3.029.446,0,.894.006,1.335-.007C17,2.49,20.643,2.383,24.259,2.225c2.218-.1,4.346-.056,6.445-.929A13.687,13.687,0,0,0,32.865,0l-.976,4.255c-1.641,1.356-3.875,1.526-5.914,1.753l-15.159.377L9.329,12.88l.1.169h6.819l.969-4.893h5.142L21.343,12.9l.083.153H31.749l-.823,3.777-10.251.07a7.018,7.018,0,0,0-.277,1.281c-.56,2.414-1,4.857-1.562,7.269-.469,2.016-.851,3.611-2.835,4.667a6.611,6.611,0,0,1-3.737.65c-1.061,0-2.112.05-3.171.077Zm-9.063-.9a16.966,16.966,0,0,0,4.3-5.289c.3-.576.516-1.192.844-1.755H10.88a19.619,19.619,0,0,1-5.927,8.524A23.669,23.669,0,0,1,0,30.545Zm57.273,3.854c.108-1.006.319-2.008.438-3.012.084-.708.205-1.509.236-2.211.035-.806.144-2.181-.941-2.332-.328-.046-.9-.068-1.257-.084-1.428-.063-2.87.039-4.289.078l.3,2.521H48.405c-.184-.146-.093-.4-.121-.622-.188-1.45-.67-3.294-.736-4.682a.586.586,0,0,1,.035-.335c.075-.112.132,0,.151,0H59.808c2.515.253,3.783,2.4,3.469,4.785l-.525,5.891ZM35.773,17.5,38.9,2.15l23.666,0a2.508,2.508,0,0,1,2.423,2.564L62.379,17.5ZM52.02,14.309h5.7a2.513,2.513,0,0,0,.558-.406c.454-.61.381-1.685.659-2.391l-.1-.169H52.653ZM41.151,14.14l.1.169h5.962l.708-2.965H41.735ZM53.212,8.3h6.409c.012-.745.875-2.52-.094-2.909l-5.65-.024ZM43.039,5.338a.518.518,0,0,0-.154.292,17.657,17.657,0,0,1-.555,2.491l.113.182h6.036l.579-2.538a.494.494,0,0,0,.054-.5c-.051,0-.091.074-.111.075-1.025.055-2.074.031-3.124.007-.58-.013-1.159-.027-1.735-.027C43.772,5.318,43.4,5.324,43.039,5.338Z" fill="#1f2734" stroke="rgba(0,0,0,0)" stroke-width="1"/>
    <path id="路径_113478" data-name="路径 113478" d="M169.707,33.988a34.891,34.891,0,0,0,1.283,6.125c1.248,3.2,3.362,2.031,4.479-.468a39.508,39.508,0,0,0,1.75-5.508h4.388c-1.1,3.734-1.855,8.61-5.481,10.784a6.615,6.615,0,0,1-2.524.9c-6.854.655-7.947-6.676-8.582-11.831Z" transform="translate(-141.977 -14.912)" fill="#0ad664" stroke="rgba(0,0,0,0)" stroke-width="1"/>
  </g>
</svg>
